<?xml version="1.0" ?><!DOCTYPE svg  PUBLIC '-//W3C//DTD SVG 1.1//EN'  'http://www.w3.org/Graphics/SVG/1.1/DTD/svg11.dtd'><svg enable-background="new 0 0 63.668 58.082" height="58.082px" id="Layer_1" version="1.1" viewBox="0 0 63.668 58.082" width="63.668px" xml:space="preserve" xmlns="http://www.w3.org/2000/svg" xmlns:xlink="http://www.w3.org/1999/xlink"><path d="M58.701,5.2h-6.59V1.5c0-0.829-0.672-1.5-1.5-1.5s-1.5,0.671-1.5,1.5v3.7H14.556V1.5c0-0.829-0.671-1.5-1.5-1.5  s-1.5,0.671-1.5,1.5v3.7H4.967C2.228,5.2,0,7.428,0,10.167v42.949c0,2.738,2.228,4.967,4.967,4.967h53.734  c2.738,0,4.967-2.229,4.967-4.967V10.167C63.668,7.428,61.439,5.2,58.701,5.2z M4.967,8.2h6.589v4.278c0,0.829,0.671,1.5,1.5,1.5  s1.5-0.671,1.5-1.5V8.2h34.556v4.278c0,0.829,0.672,1.5,1.5,1.5s1.5-0.671,1.5-1.5V8.2h6.59c1.085,0,1.967,0.882,1.967,1.967v7.359  H3v-7.359C3,9.082,3.882,8.2,4.967,8.2z M58.701,55.082H4.967C3.882,55.082,3,54.2,3,53.115V20.526h57.668v32.589  C60.668,54.2,59.786,55.082,58.701,55.082z"/></svg>